<?xml version="1.0" encoding="UTF-8" standalone="no"?>
<svg
   viewBox="0 0 512 512"
   width="512"
   height="512"
   version="1.1"
   id="svg10"
   xmlns="http://www.w3.org/2000/svg"
   xmlns:svg="http://www.w3.org/2000/svg">
  <title
     id="title1">codeonym</title>
  <defs
     id="defs1" />
  <path
     d="M256.00,34.00 L448.26,145.00 L448.26,367.00 L256.00,478.00 L63.74,367.00 L63.74,145.00 Z"
     fill="none"
     stroke="#ffffff"
     stroke-width="24"
     stroke-linejoin="round"
     id="path1" />
  <path
     d="M256.00,70.00 L417.08,163.00 L417.08,349.00 L256.00,442.00 L94.92,349.00 L94.92,163.00 Z"
     fill="none"
     stroke="#ffffff"
     stroke-width="4"
     stroke-linejoin="round"
     opacity="0.8"
     id="path2" />
  <g
     fill="none"
     stroke="#ffffff"
     stroke-width="26"
     stroke-linecap="round"
     stroke-linejoin="round"
     id="g4">
    <path
       d="M178,178 L122,236 L178,294"
       id="path3" />
    <path
       d="M334,178 L390,236 L334,294"
       id="path4" />
  </g>
  <path
     d="M256,178 C265.92,230.08 265.92,230.08 318,240 C265.92,249.92 265.92,249.92 256,302 C246.08,249.92 246.08,249.92 194,240 C246.08,230.08 246.08,230.08 256,178 Z"
     fill="#ffffff"
     id="path5" />
  <path
     d="M297,170 C299.8,181.2 299.8,181.2 311,184 C299.8,186.8 299.8,186.8 297,198 C294.2,186.8 294.2,186.8 283,184 C294.2,181.2 294.2,181.2 297,170 Z"
     fill="#ffffff"
     id="path6" />
  <rect
     x="176"
     y="338"
     width="26"
     height="14"
     rx="3"
     fill="#ffffff"
     id="rect6" />
  <rect
     x="210"
     y="338"
     width="26"
     height="14"
     rx="3"
     fill="#ffffff"
     id="rect7" />
  <rect
     x="244"
     y="338"
     width="26"
     height="14"
     rx="3"
     fill="#ffffff"
     id="rect8" />
  <rect
     x="278"
     y="338"
     width="26"
     height="14"
     rx="3"
     fill="#ffffff"
     id="rect9" />
  <rect
     x="313.5"
     y="339.5"
     width="23"
     height="11"
     rx="2.5"
     fill="none"
     stroke="#ffffff"
     stroke-width="3"
     opacity="1"
     id="rect10" />
</svg>
